<?xml version="1.0" encoding="UTF-8"?>
<svg width="96" height="96" viewBox="0 0 96 96" fill="none" xmlns="http://www.w3.org/2000/svg">
    <rect width="96" height="96" rx="0" fill="#4169E1"/>
    <path d="M96 0H0V96H96V0Z" fill="#4169E1"/>
    <path d="M23.904 75V27.6H44.928C49.152 27.6 52.704 28.416 55.584 30.048C58.464 31.632 60.624 33.792 62.064 36.528C63.552 39.216 64.296 42.24 64.296 45.6C64.296 48.96 63.552 52.008 62.064 54.744C60.624 57.432 58.464 59.592 55.584 61.224C52.704 62.808 49.152 63.6 44.928 63.6H36.624V75H23.904ZM36.624 52.992H43.872C46.32 52.992 48.12 52.32 49.272 50.976C50.472 49.584 51.072 47.808 51.072 45.648C51.072 43.44 50.472 41.664 49.272 40.32C48.12 38.928 46.32 38.232 43.872 38.232H36.624V52.992Z" fill="white"/>
</svg>
